<svg xmlns="http://www.w3.org/2000/svg" width="426.667" height="426.667"><path d="M0 0v426.666h426.666V0H0zm214.176 43.732c2.608 0 52.198 22.443 54.008 24.442 3.937 4.35.396 12.892-5.344 12.892-1.297 0-12.585-4.56-25.084-10.132-12.5-5.574-23.12-10.133-23.6-10.133-.48 0-11.208 4.56-23.84 10.133-12.631 5.573-23.922 10.132-25.09 10.132-2.944 0-7.359-4.7-7.359-7.834 0-1.428.839-3.6 1.865-4.828 1.846-2.207 51.418-24.672 54.444-24.672zm-97.84 43.735c5.943 0 9.583 7.269 6.057 12.092-.737 1.008-14.057 7.477-29.6 14.377l-28.26 12.546-.273 89.622-.272 89.623 27.473 12.054c15.11 6.63 28.553 13.046 29.873 14.256 2.882 2.643 3.117 7.146.533 10.2-3.856 4.557-5.639 4.072-38.668-10.526-17.306-7.65-32.305-14.908-33.332-16.129C48.12 313.504 48 307.218 48 216.998c0-69.906.334-97.097 1.217-99.035.986-2.165 7.165-5.308 32.603-16.584 17.262-7.652 32.794-13.912 34.516-13.912zm194.77.215c2.19-.222 11.81 3.494 31.359 12.113 15.51 6.838 29.745 13.102 31.63 13.918 1.886.816 3.926 2.413 4.534 3.549.74 1.381 1.103 34.337 1.103 99.549v97.484l-2.398 2.15c-1.32 1.183-15.71 7.973-31.977 15.092h.006c-16.267 7.119-30.667 13.174-32 13.455-5.945 1.253-11.13-5.728-8.175-11.006 1.768-3.159.499-2.512 33.753-17.181l24.8-10.94-.01-89.732-.01-89.733-27.883-12.232c-15.336-6.728-28.533-12.883-29.326-13.676-4.383-4.383-1.584-12.186 4.593-12.81zm-155.768 60.586c.86 0 12.318 5.077 25.465 11.283l23.904 11.283 23.793-11.283c13.087-6.206 24.564-11.283 25.504-11.283.94 0 2.974.993 4.52 2.209 2.14 1.683 2.81 3.162 2.81 6.197 0 2.192-.6 4.79-1.334 5.773-.733.984-12.982 7.315-27.219 14.07-14.237 6.756-26.958 12.259-28.267 12.23-3.52-.08-53.269-24.036-55.448-26.7-2.276-2.783-2.363-5.46-.306-9.438 1.55-2.999 3.587-4.341 6.578-4.341zm178.176 22.423c3.727-.038 5.663 1.103 7.326 4.319 1.293 2.5 1.56 10.32 1.56 45.65 0 23.448-.304 43.42-.673 44.385-.862 2.246-52.815 28.289-56.434 28.289-3.4 0-7.959-4.42-7.959-7.715 0-4.85 3.467-7.343 25.687-18.463l22.313-11.166v-31.994c0-17.597-.12-31.992-.268-31.988-.146.004-19.706 8.56-43.466 19.012l-43.2 19.001-.591 57.399-.592 57.398-2.936 2.524c-3.614 3.109-6.99 3.21-10.67.314l-2.81-2.21.015-60.99c.012-46.86.327-61.604 1.358-63.642 1.088-2.15 11.533-7.143 55.183-26.376 29.614-13.049 54.885-23.733 56.157-23.747zm-235.051 11.86c4.074-.129 11.486 3.158 29.441 11.978 13.58 6.671 25.636 12.985 26.793 14.032 4.702 4.254 1.072 14.373-5.156 14.373-1.277 0-10.8-4.08-21.162-9.067-10.362-4.986-19.246-9.066-19.742-9.066-.497 0-.905 14.435-.905 32.08v32.082l22.887 11.1c13.364 6.481 23.35 11.965 24 13.181 2.53 4.727 1.118 10.147-3.228 12.395-1.66.858-3.162 1.56-3.338 1.556-.656-.01-31.68-14.81-43.094-20.558-9.351-4.71-12.083-6.595-12.99-8.967-.797-2.083-.928-16.458-.426-46.893.677-41.093.853-44.034 2.756-46.134 1.15-1.27 2.312-2.034 4.164-2.092zm66.902 169.06c2.762.119 7.856 2.278 24.13 9.514 12.817 5.7 24.025 10.325 24.905 10.275.88-.049 11.44-4.504 23.467-9.898s23.214-9.818 24.86-9.832c6.482-.055 10.192 9.147 5.289 13.117-1.214.983-13.252 6.667-26.75 12.633-13.958 6.169-25.848 10.798-27.57 10.734-3.644-.136-50.425-20.898-53.598-23.787-4.037-3.674-2.507-10.044 2.955-12.306.73-.303 1.392-.49 2.312-.45zm170.682 28.752h4.639v20.92h.64c1.76 0 2.64.667 2.64 2 0 1.334-.88 2-2.64 2h-4.64v-1.4c-1.92 1.306-3.933 1.959-6.04 1.959-2.986 0-5.387-.893-7.2-2.68-1.787-1.787-2.68-4-2.68-6.64 0-2.64.893-4.84 2.68-6.6 1.813-1.787 4.226-2.68 7.24-2.68 2.32 0 4.32.667 6 2v-4.92h-.64c-.852 0-1.507-.133-1.96-.4-.453-.293-.68-.826-.68-1.6 0-.746.227-1.253.68-1.52.453-.293 1.108-.439 1.96-.439zm40.119 0h4.72v4.2h-4.72v-4.2zm-69.959 6.88c2.187 0 4.065.666 5.639 2v-1.44h4.64c1.76 0 2.641.666 2.641 2 0 1.333-.88 2-2.64 2h-.641v14.279c0 2.107-.733 3.827-2.2 5.16-1.44 1.36-3.252 2.041-5.439 2.041h-4.48c-1.76 0-2.641-.666-2.641-2 0-.773.226-1.308.68-1.601.453-.267 1.107-.399 1.96-.399h4.36c1.173 0 2.093-.28 2.76-.84.666-.56 1-1.348 1-2.361v-2.2c-1.76 1.307-3.639 1.96-5.639 1.96-2.693 0-4.948-.879-6.762-2.639-1.786-1.787-2.68-4-2.68-6.64 0-2.667.894-4.881 2.68-6.641 1.814-1.787 4.069-2.68 6.762-2.68zm-45.361.04c2.8 0 5.12.866 6.96 2.6 1.867 1.706 2.8 3.853 2.8 6.44 0 2.453-.92 4.494-2.76 6.12-1.84 1.627-4.147 2.44-6.92 2.44-2.187 0-4.253-.747-6.2-2.24v6.64h2.32c.88 0 1.533.132 1.96.399.453.293.68.828.68 1.601 0 1.334-.88 2-2.64 2h-6.96c-1.76 0-2.64-.666-2.64-2 0-1.333.88-2 2.64-2h.64v-17.48h-.64c-.853 0-1.506-.134-1.96-.4-.452-.294-.68-.827-.68-1.6 0-1.334.88-2 2.64-2h4.64v1.799c1.814-1.547 3.853-2.319 6.12-2.319zm22.24 0c2.987 0 5.454.906 7.4 2.719 1.974 1.813 2.96 4.093 2.96 6.84v1.56h-16.32c.908 2.347 3.093 3.52 6.56 3.52 1.413 0 2.987-.212 4.72-.639 1.734-.453 2.773-.681 3.12-.681.533 0 .987.201 1.36.601.374.373.56.839.56 1.399 0 .853-.772 1.56-2.32 2.12-1.546.534-3 .867-4.36 1-1.334.134-2.48.2-3.44.2-3.093 0-5.626-.866-7.6-2.6-1.973-1.733-2.96-3.96-2.96-6.68 0-2.64.987-4.853 2.96-6.64 2-1.813 4.453-2.719 7.36-2.719zm120.48 0c2.827 0 5.226.906 7.2 2.719 2 1.813 3 4.013 3 6.6 0 2.613-1 4.827-3 6.64-2 1.787-4.44 2.68-7.32 2.68s-5.321-.893-7.321-2.68c-2-1.813-3-4.027-3-6.64 0-2.64 1-4.852 3-6.64 2-1.786 4.481-2.679 7.441-2.679zm-29.24.52h7.12v13.48h4.88c1.76 0 2.64.667 2.64 2 0 1.334-.88 2-2.64 2h-13.76c-1.76 0-2.64-.666-2.64-2 0-.773.226-1.294.68-1.56.453-.294 1.107-.44 1.96-.44h4.88v-9.48h-3.12c-1.786 0-2.68-.667-2.68-2 0-.8.227-1.333.68-1.6.48-.267 1.147-.4 2-.4zm-68.039 3.44c-1.52 0-2.828.52-3.922 1.56-1.066 1.013-1.6 2.252-1.6 3.718 0 1.467.534 2.722 1.6 3.762 1.094 1.04 2.402 1.559 3.922 1.559s2.827-.506 3.92-1.52c1.093-1.04 1.639-2.28 1.639-3.72 0-1.494-.546-2.76-1.639-3.8-1.067-1.04-2.373-1.56-3.92-1.56zm24.399 0c-1.787 0-3.227.52-4.32 1.56-1.067 1.013-1.6 2.252-1.6 3.718 0 1.52.547 2.788 1.64 3.801 1.12 1.014 2.56 1.52 4.32 1.52 1.76 0 3.187-.492 4.28-1.479 1.12-1.013 1.68-2.268 1.68-3.761 0-1.6-.546-2.893-1.64-3.88-1.092-.986-2.547-1.48-4.36-1.48zm-70 .04c-1.787 0-3.225.453-4.319 1.36-1.093.906-1.64 2.04-1.64 3.4 0 1.413.547 2.572 1.64 3.478 1.12.907 2.559 1.362 4.319 1.362 1.733 0 3.146-.455 4.24-1.362 1.12-.906 1.68-2.052 1.68-3.439s-.546-2.533-1.64-3.44c-1.093-.906-2.52-1.359-4.28-1.359zm22.441 0c-1.467 0-2.747.334-3.84 1-1.067.667-1.748 1.533-2.04 2.6h11.759c-.32-1.094-1.014-1.96-2.08-2.6-1.067-.666-2.332-1-3.799-1zm120.398 0c-1.813 0-3.332.506-4.558 1.52-1.227 1.013-1.842 2.279-1.842 3.799 0 1.493.6 2.76 1.8 3.8 1.227 1.014 2.734 1.52 4.52 1.52 1.787 0 3.28-.506 4.48-1.52 1.227-1.04 1.84-2.307 1.84-3.8 0-1.494-.613-2.747-1.84-3.76-1.2-1.04-2.666-1.559-4.4-1.559zm-48.44 9.319h.722c.746 0 1.372.255 1.879.761.506.507.76 1.133.76 1.88 0 .746-.254 1.373-.76 1.88-.507.507-1.133.76-1.88.76h-.72c-.72 0-1.348-.253-1.88-.76a2.643 2.643 0 01-.76-1.88c0-.72.252-1.334.76-1.84.532-.534 1.16-.801 1.88-.801z"/></svg>